<mxfile host="app.diagrams.net" agent="Mozilla/5.0 (Windows NT 10.0; Win64; x64) AppleWebKit/537.36 (KHTML, like Gecko) Chrome/129.0.0.0 Safari/537.36" version="24.7.16">
  <diagram name="Sida-1" id="kbR5GSXwE-ZB04TRYCCl">
    <mxGraphModel dx="1048" dy="1379" grid="1" gridSize="10" guides="1" tooltips="1" connect="1" arrows="1" fold="1" page="1" pageScale="1" pageWidth="827" pageHeight="1169" math="0" shadow="0">
      <root>
        <mxCell id="0" />
        <mxCell id="1" parent="0" />
        <mxCell id="eVOXlqLl_GmtHdPJxd53-1" value="START" style="rounded=1;whiteSpace=wrap;html=1;" parent="1" vertex="1">
          <mxGeometry x="40" y="120" width="120" height="40" as="geometry" />
        </mxCell>
        <mxCell id="eVOXlqLl_GmtHdPJxd53-2" value="Athentication&lt;div&gt;(not used)&lt;/div&gt;" style="rounded=1;whiteSpace=wrap;html=1;" parent="1" vertex="1">
          <mxGeometry x="200" y="120" width="120" height="40" as="geometry" />
        </mxCell>
        <mxCell id="eVOXlqLl_GmtHdPJxd53-3" value="Verification&lt;div&gt;(check Jira number)&lt;/div&gt;" style="rounded=1;whiteSpace=wrap;html=1;" parent="1" vertex="1">
          <mxGeometry x="400" y="120" width="120" height="40" as="geometry" />
        </mxCell>
        <mxCell id="eVOXlqLl_GmtHdPJxd53-4" value="" style="endArrow=classic;html=1;rounded=0;exitX=1;exitY=0.5;exitDx=0;exitDy=0;entryX=0;entryY=0.5;entryDx=0;entryDy=0;" parent="1" source="eVOXlqLl_GmtHdPJxd53-1" target="eVOXlqLl_GmtHdPJxd53-2" edge="1">
          <mxGeometry width="50" height="50" relative="1" as="geometry">
            <mxPoint x="280" y="570" as="sourcePoint" />
            <mxPoint x="330" y="520" as="targetPoint" />
          </mxGeometry>
        </mxCell>
        <mxCell id="eVOXlqLl_GmtHdPJxd53-5" value="5 min&lt;div&gt;pause&lt;/div&gt;" style="endArrow=classic;html=1;rounded=0;exitX=1;exitY=0.5;exitDx=0;exitDy=0;entryX=0;entryY=0.5;entryDx=0;entryDy=0;" parent="1" source="eVOXlqLl_GmtHdPJxd53-2" target="eVOXlqLl_GmtHdPJxd53-3" edge="1">
          <mxGeometry width="50" height="50" relative="1" as="geometry">
            <mxPoint x="170" y="150" as="sourcePoint" />
            <mxPoint x="250" y="150" as="targetPoint" />
          </mxGeometry>
        </mxCell>
        <mxCell id="eVOXlqLl_GmtHdPJxd53-6" value="Start MMA" style="rounded=1;whiteSpace=wrap;html=1;" parent="1" vertex="1">
          <mxGeometry x="560" y="120" width="120" height="40" as="geometry" />
        </mxCell>
        <mxCell id="eVOXlqLl_GmtHdPJxd53-7" value="" style="endArrow=classic;html=1;rounded=0;" parent="1" source="eVOXlqLl_GmtHdPJxd53-3" target="eVOXlqLl_GmtHdPJxd53-6" edge="1">
          <mxGeometry width="50" height="50" relative="1" as="geometry">
            <mxPoint x="560" y="139.58" as="sourcePoint" />
            <mxPoint x="640" y="139.58" as="targetPoint" />
          </mxGeometry>
        </mxCell>
        <mxCell id="eVOXlqLl_GmtHdPJxd53-8" value="Start AWP" style="rounded=1;whiteSpace=wrap;html=1;" parent="1" vertex="1">
          <mxGeometry x="720" y="120" width="120" height="40" as="geometry" />
        </mxCell>
        <mxCell id="eVOXlqLl_GmtHdPJxd53-9" value="" style="endArrow=classic;html=1;rounded=0;entryX=0;entryY=0.5;entryDx=0;entryDy=0;" parent="1" source="eVOXlqLl_GmtHdPJxd53-6" target="eVOXlqLl_GmtHdPJxd53-8" edge="1">
          <mxGeometry width="50" height="50" relative="1" as="geometry">
            <mxPoint x="530" y="150" as="sourcePoint" />
            <mxPoint x="570" y="150" as="targetPoint" />
          </mxGeometry>
        </mxCell>
        <mxCell id="eVOXlqLl_GmtHdPJxd53-10" value="Actor" style="shape=umlActor;verticalLabelPosition=bottom;verticalAlign=top;html=1;outlineConnect=0;" parent="1" vertex="1">
          <mxGeometry x="200" y="200" width="30" height="60" as="geometry" />
        </mxCell>
        <mxCell id="eVOXlqLl_GmtHdPJxd53-11" value="" style="endArrow=classic;html=1;rounded=0;" parent="1" edge="1">
          <mxGeometry relative="1" as="geometry">
            <mxPoint x="350" y="240" as="sourcePoint" />
            <mxPoint x="450" y="240" as="targetPoint" />
          </mxGeometry>
        </mxCell>
        <mxCell id="eVOXlqLl_GmtHdPJxd53-12" value="Label" style="edgeLabel;resizable=0;html=1;;align=center;verticalAlign=middle;" parent="eVOXlqLl_GmtHdPJxd53-11" connectable="0" vertex="1">
          <mxGeometry relative="1" as="geometry" />
        </mxCell>
        <mxCell id="eVOXlqLl_GmtHdPJxd53-13" value="" style="endArrow=classic;html=1;rounded=0;" parent="1" edge="1">
          <mxGeometry relative="1" as="geometry">
            <mxPoint x="560" y="240" as="sourcePoint" />
            <mxPoint x="720" y="240" as="targetPoint" />
          </mxGeometry>
        </mxCell>
        <mxCell id="eVOXlqLl_GmtHdPJxd53-14" value="Label" style="edgeLabel;resizable=0;html=1;;align=center;verticalAlign=middle;" parent="eVOXlqLl_GmtHdPJxd53-13" connectable="0" vertex="1">
          <mxGeometry relative="1" as="geometry" />
        </mxCell>
        <mxCell id="eVOXlqLl_GmtHdPJxd53-15" value="Source" style="edgeLabel;resizable=0;html=1;;align=left;verticalAlign=bottom;" parent="eVOXlqLl_GmtHdPJxd53-13" connectable="0" vertex="1">
          <mxGeometry x="-1" relative="1" as="geometry" />
        </mxCell>
        <mxCell id="eVOXlqLl_GmtHdPJxd53-16" value="" style="endArrow=classic;html=1;rounded=0;" parent="1" edge="1">
          <mxGeometry relative="1" as="geometry">
            <mxPoint x="600" y="290" as="sourcePoint" />
            <mxPoint x="700" y="290" as="targetPoint" />
          </mxGeometry>
        </mxCell>
        <mxCell id="eVOXlqLl_GmtHdPJxd53-17" value="" style="shape=message;html=1;outlineConnect=0;" parent="eVOXlqLl_GmtHdPJxd53-16" vertex="1">
          <mxGeometry width="20" height="14" relative="1" as="geometry">
            <mxPoint x="-10" y="-7" as="offset" />
          </mxGeometry>
        </mxCell>
        <mxCell id="eVOXlqLl_GmtHdPJxd53-18" value="" style="shape=link;html=1;rounded=0;" parent="1" edge="1">
          <mxGeometry width="100" relative="1" as="geometry">
            <mxPoint x="380" y="320" as="sourcePoint" />
            <mxPoint x="480" y="320" as="targetPoint" />
          </mxGeometry>
        </mxCell>
        <mxCell id="eVOXlqLl_GmtHdPJxd53-19" value="List Item" style="text;strokeColor=none;fillColor=none;align=left;verticalAlign=middle;spacingLeft=4;spacingRight=4;overflow=hidden;points=[[0,0.5],[1,0.5]];portConstraint=eastwest;rotatable=0;whiteSpace=wrap;html=1;" parent="1" vertex="1">
          <mxGeometry x="150" y="400" width="80" height="30" as="geometry" />
        </mxCell>
        <mxCell id="eVOXlqLl_GmtHdPJxd53-20" value="&lt;h1 style=&quot;margin-top: 0px;&quot;&gt;Heading&lt;/h1&gt;&lt;p&gt;Lorem ipsum dolor sit amet, consectetur adipisicing elit, sed do eiusmod tempor incididunt ut labore et dolore magna aliqua.&lt;/p&gt;" style="text;html=1;whiteSpace=wrap;overflow=hidden;rounded=0;" parent="1" vertex="1">
          <mxGeometry x="360" y="400" width="180" height="120" as="geometry" />
        </mxCell>
      </root>
    </mxGraphModel>
  </diagram>
</mxfile>
